<svg id="Layer_1" data-name="Layer 1" xmlns="http://www.w3.org/2000/svg" viewBox="0 0 2573.06 1203.34"><defs><style>.cls-1,.cls-3,.cls-6,.cls-8,.cls-9{fill:none;}.cls-1,.cls-2,.cls-3,.cls-5,.cls-6,.cls-8{stroke:#000;}.cls-1,.cls-10,.cls-2,.cls-3,.cls-6,.cls-7,.cls-8,.cls-9{stroke-miterlimit:10;}.cls-1,.cls-10,.cls-7{stroke-width:9px;}.cls-3{stroke-width:21px;}.cls-4{fill:#fff;}.cls-5{stroke-linecap:round;stroke-linejoin:round;}.cls-6{stroke-width:8px;}.cls-7{stroke:#f2f2f2;}.cls-8{stroke-width:12px;}.cls-10,.cls-9{stroke:#fbb03b;}.cls-11{fill:#272838;}.cls-12{fill:#8d99ae;}.cls-13{fill:#ccfccb;}.cls-14{fill:#96e6b3;}.cls-15{font-size:18px;font-family:TwCenMT-Regular, Tw Cen MT;letter-spacing:0.07em;}</style></defs><path d="M1845.09,89.35h21.12a0,0,0,0,1,0,0v36.11a21.12,21.12,0,0,1-21.12,21.12h0a0,0,0,0,1,0,0V89.35A0,0,0,0,1,1845.09,89.35Z"/><path class="cls-1" d="M2291.6,130.57s145.93-238.74,270.32,0Z" transform="translate(-97.98 -19.96)"/><circle class="cls-2" cx="2328.78" cy="98.93" r="45.3"/><path class="cls-3" d="M1916.6,451.92s71.8-117.46,133,0Z" transform="translate(-97.98 -19.96)"/><circle class="cls-2" cx="1885.96" cy="426.08" r="22.29"/><circle class="cls-4" cx="1885.96" cy="426.08" r="8.55"/><path class="cls-5" d="M1983.93,483.46c-10.54,0-20.8-7.33-23.12-17.17l1.43,101.77h0a43.38,43.38,0,0,0,43.38-43.37l1.43-58.4C2004.73,476.13,1994.48,483.46,1983.93,483.46Z" transform="translate(-97.98 -19.96)"/><path d="M1884,656.48h36.42v9h-27.55v16.41h27.55v8.87h-27.55v22.6h27.55v8.87H1884Z" transform="translate(-97.98 -19.96)"/><path d="M1938.36,653.85,1987,703.8V656.48h9v68.76l-48.6-49.72V722.2h-9Z" transform="translate(-97.98 -19.96)"/><path d="M2057.41,663.8l-7.28,5.83a29.22,29.22,0,0,0-5.22-4.46,12.82,12.82,0,0,0-6.77-1.47,13,13,0,0,0-7.85,2.19,6.66,6.66,0,0,0-3,5.63,6.83,6.83,0,0,0,2.63,5.27q2.63,2.3,9,5a63.06,63.06,0,0,1,9.86,5.07,25.13,25.13,0,0,1,5.8,5.18,20.43,20.43,0,0,1,3.37,6,19.79,19.79,0,0,1,1.11,6.65,18.75,18.75,0,0,1-6,14,20,20,0,0,1-14.42,5.77,24.42,24.42,0,0,1-14.57-4.52q-6.33-4.5-9.73-13.54l9-2.52q4.9,11.08,15,11.09a11.73,11.73,0,0,0,8.15-2.93,9.55,9.55,0,0,0,3.25-7.41,10.11,10.11,0,0,0-1.7-5.38,15.12,15.12,0,0,0-4.24-4.44,44.71,44.71,0,0,0-8-4,57.26,57.26,0,0,1-8.49-4.14,21.9,21.9,0,0,1-5.16-4.49,19,19,0,0,1-3.18-5.18,15,15,0,0,1-1-5.51,15.44,15.44,0,0,1,5.68-12,20.13,20.13,0,0,1,13.77-5,27.85,27.85,0,0,1,10.88,2.32A22.39,22.39,0,0,1,2057.41,663.8Z" transform="translate(-97.98 -19.96)"/><path d="M2178,667.13l-6.66,6.55q-10.05-9.85-23.26-9.85-11.57,0-19.24,7.42a24.71,24.71,0,0,0-7.69,18.55q0,9.75,7.45,17.55t20.56,7.81q19.65,0,24.71-17.08h-17.74v-9h28a50.38,50.38,0,0,1-.91,10.76,31.45,31.45,0,0,1-3.73,8.86,32.21,32.21,0,0,1-7.56,8.68,29.82,29.82,0,0,1-10.11,5.49,44.33,44.33,0,0,1-12.87,1.65q-17,0-27.16-10.7t-10.14-24.46A33.23,33.23,0,0,1,2122,664.73a34.52,34.52,0,0,1,25.12-10.19,46.26,46.26,0,0,1,16,2.66Q2170.42,659.86,2178,667.13Z" transform="translate(-97.98 -19.96)"/><path d="M2204.18,656.61h9v25.28h31.42V656.61h8.87v65.72h-8.87V690.76h-31.42v31.57h-9Z" transform="translate(-97.98 -19.96)"/><path d="M2271.59,656.61h40.18v9h-15.68v56.75h-8.87V665.58h-15.63Z" transform="translate(-97.98 -19.96)"/><path d="M2329.09,656.61h36.42v9H2338V682h27.55v8.87H2338v22.6h27.55v8.87h-36.42Z" transform="translate(-97.98 -19.96)"/><path class="cls-6" d="M1908.8,95.52s48.4-79.17,89.65,0Z" transform="translate(-97.98 -19.96)"/><circle cx="1855.65" cy="75.56" r="15.02"/><circle class="cls-7" cx="1855.65" cy="75.56" r="15.02"/><circle class="cls-4" cx="1855.65" cy="75.56" r="6.52"/><path d="M2080.35,248h21.12a0,0,0,0,1,0,0v36.11a21.12,21.12,0,0,1-21.12,21.12h0a0,0,0,0,1,0,0V248A0,0,0,0,1,2080.35,248Z"/><path class="cls-6" d="M2144.06,254.17s48.4-79.17,89.65,0Z" transform="translate(-97.98 -19.96)"/><circle cx="2090.91" cy="234.21" r="15.02"/><circle class="cls-7" cx="2090.91" cy="234.21" r="15.02"/><circle class="cls-4" cx="2090.91" cy="234.21" r="6.52"/><path d="M1928,253.34v41.08H1939A30,30,0,0,1,1928,317.61v6.85h0a30,30,0,0,0,30-30V253.34Z" transform="translate(-97.98 -19.96)"/><path class="cls-6" d="M1898.24,244.44s48.4-79.17,89.65,0Z" transform="translate(-97.98 -19.96)"/><circle cx="1845.09" cy="224.48" r="15.02"/><circle class="cls-7" cx="1845.09" cy="224.48" r="15.02"/><circle class="cls-4" cx="1845.09" cy="224.48" r="6.52"/><path d="M1958.15,246h30a0,0,0,0,1,0,0v41.07a30,30,0,0,1-30,30h0a0,0,0,0,1,0,0V246A0,0,0,0,1,1958.15,246Z"/><path class="cls-6" d="M2026.32,257.07s48.4-79.18,89.65,0Z" transform="translate(-97.98 -19.96)"/><circle cx="1973.17" cy="237.1" r="15.02"/><circle class="cls-7" cx="1973.17" cy="237.1" r="15.02"/><circle class="cls-4" cx="1973.17" cy="237.1" r="6.52"/><circle cx="2323.76" cy="301.82" r="17.7"/><path d="M2627.44,603.92v48.4A35.41,35.41,0,0,1,2592,687.73V603.92h3.89a17.69,17.69,0,0,0,28.52,0Z" transform="translate(-97.98 -19.96)"/><path class="cls-8" d="M2555.5,606s57-93.31,105.65,0Z" transform="translate(-97.98 -19.96)"/><path class="cls-8" d="M2509.1,334.44s57-93.3,105.65,0Z" transform="translate(-97.98 -19.96)"/><path class="cls-9" d="M2592.24,246.14a20.65,20.65,0,0,0,.71-5.37,19.57,19.57,0,0,0-.19-2.78h23.08c-41-73.78-89.2,0-89.2,0h25.26a21.16,21.16,0,0,0-.19,2.78,20.65,20.65,0,0,0,.71,5.37h-41s64.64-110.45,119.73,0Z" transform="translate(-97.98 -19.96)"/><path d="M2468.29,765v48.4a35.41,35.41,0,0,1-35.41,35.41V765h3.89a17.71,17.71,0,0,0,28.52,0Z" transform="translate(-97.98 -19.96)"/><path class="cls-8" d="M2396.35,763.4s57-93.3,105.64,0Z" transform="translate(-97.98 -19.96)"/><path class="cls-7" d="M2579.63,332.88a17.71,17.71,0,1,1-17.71-17.7A17.59,17.59,0,0,1,2579.63,332.88Z" transform="translate(-97.98 -19.96)"/><path class="cls-10" d="M2431.75,385.74A17.7,17.7,0,1,1,2414,368,17.64,17.64,0,0,1,2431.75,385.74Z" transform="translate(-97.98 -19.96)"/><path class="cls-7" d="M2470,763.4a17.7,17.7,0,1,1-17.7-17.71A17.64,17.64,0,0,1,2470,763.4Z" transform="translate(-97.98 -19.96)"/><circle class="cls-7" cx="2323.76" cy="227.02" r="17.7"/><circle class="cls-4" cx="2323.76" cy="227.02" r="7.68"/><path class="cls-7" d="M2627.44,608.73A20.49,20.49,0,1,1,2607,588.24,20.33,20.33,0,0,1,2627.44,608.73Z" transform="translate(-97.98 -19.96)"/><circle class="cls-4" cx="2508.98" cy="588.77" r="8.89"/><path d="M2056.56,75.83h30a0,0,0,0,1,0,0v56.1a15,15,0,0,1-15,15h0a15,15,0,0,1-15-15V75.83A0,0,0,0,1,2056.56,75.83Z"/><path class="cls-6" d="M2124.73,86.9s48.4-79.18,89.65,0Z" transform="translate(-97.98 -19.96)"/><circle cx="2071.58" cy="66.93" r="15.02"/><circle class="cls-7" cx="2071.58" cy="66.93" r="15.02"/><circle class="cls-4" cx="2071.58" cy="66.93" r="6.52"/><rect x="1943.13" y="77.67" width="30.05" height="71.12"/><path class="cls-6" d="M2011.3,88.73s48.4-79.18,89.65,0Z" transform="translate(-97.98 -19.96)"/><circle cx="1958.15" cy="68.77" r="15.02"/><circle class="cls-7" cx="1958.15" cy="68.77" r="15.02"/><circle class="cls-4" cx="1958.15" cy="68.77" r="6.52"/><path d="M2580.89,441.49v45.36a35.4,35.4,0,0,1-35.41,35.4V441.49a21.08,21.08,0,0,0,35.41,0Z" transform="translate(-97.98 -19.96)"/><path d="M2582.92,435.39a20.65,20.65,0,0,0,.71-5.37,19.67,19.67,0,0,0-.19-2.78h23.08c-41-73.78-89.2,0-89.2,0h25.26a21.28,21.28,0,0,0-.19,2.78,20.65,20.65,0,0,0,.71,5.37h-41s64.64-110.45,119.73,0Z" transform="translate(-97.98 -19.96)"/><path d="M2577.74,428.94a14.59,14.59,0,0,0-29.11,0c0,.36,0,.72,0,1.08a14.6,14.6,0,1,0,29.19,0C2577.78,429.66,2577.77,429.3,2577.74,428.94Zm-14.56,8.76a7.69,7.69,0,1,1,7.69-7.68A7.68,7.68,0,0,1,2563.18,437.7Z" transform="translate(-97.98 -19.96)"/><path d="M100.08,132.41h40.7v10H110v18.33h30.78v9.91H110v25.25h30.78v9.91h-40.7Z" transform="translate(-97.98 -19.96)"/><path d="M160.87,129.47l54.3,55.81V132.41h10v76.83l-54.3-55.56v52.16h-10Z" transform="translate(-97.98 -19.96)"/><path d="M293.89,140.59l-8.13,6.51a32.84,32.84,0,0,0-5.84-5c-1.74-1.1-4.26-1.64-7.56-1.64a14.55,14.55,0,0,0-8.77,2.44,7.44,7.44,0,0,0-3.37,6.29,7.63,7.63,0,0,0,2.94,5.89q2.94,2.57,10,5.6a71.39,71.39,0,0,1,11,5.66,28.26,28.26,0,0,1,6.48,5.79,22.87,22.87,0,0,1,3.76,6.68,22.07,22.07,0,0,1,1.24,7.43A21,21,0,0,1,289,201.87a22.32,22.32,0,0,1-16.12,6.45,27.33,27.33,0,0,1-16.28-5q-7.06-5.06-10.86-15.14l10-2.82q5.49,12.39,16.78,12.39a13.12,13.12,0,0,0,9.11-3.27,10.67,10.67,0,0,0,3.63-8.28,11.18,11.18,0,0,0-1.91-6,16.89,16.89,0,0,0-4.73-5,50.07,50.07,0,0,0-9-4.49,63.14,63.14,0,0,1-9.5-4.63,24.54,24.54,0,0,1-5.75-5,21.16,21.16,0,0,1-3.56-5.79,16.77,16.77,0,0,1-1.13-6.16,17.28,17.28,0,0,1,6.34-13.45,22.53,22.53,0,0,1,15.39-5.56,31.24,31.24,0,0,1,12.17,2.59A25.07,25.07,0,0,1,293.89,140.59Z" transform="translate(-97.98 -19.96)"/><path d="M466.5,144.08l-7.43,7.32q-11.25-11-26-11-12.92,0-21.5,8.29A27.62,27.62,0,0,0,403,169.41q0,10.89,8.33,19.61t23,8.72q22,0,27.61-19.08H442.06v-10h31.3a57.24,57.24,0,0,1-1,12,34.91,34.91,0,0,1-4.18,9.9,35.69,35.69,0,0,1-8.44,9.7,33.26,33.26,0,0,1-11.3,6.13,49.42,49.42,0,0,1-14.38,1.84q-19,0-30.35-11.95T392.38,169A37.2,37.2,0,0,1,404,141.39,38.62,38.62,0,0,1,432,130a51.63,51.63,0,0,1,17.9,3Q458,136,466.5,144.08Z" transform="translate(-97.98 -19.96)"/><path d="M495.76,132.32h10v28.24h35.1V132.32h9.92v73.43h-9.92V170.48h-35.1v35.27h-10Z" transform="translate(-97.98 -19.96)"/><path d="M571.07,132.32H616v10H598.45v63.4h-9.91v-63.4H571.07Z" transform="translate(-97.98 -19.96)"/><circle class="cls-4" cx="346.98" cy="53.85" r="5.1"/><path d="M367.17,128.74v50.94a39.76,39.76,0,0,1-39.76,39.77V128.74a23.67,23.67,0,0,0,39.76,0Z" transform="translate(-97.98 -19.96)"/><path d="M369.46,121.88a23.23,23.23,0,0,0,.59-9.16H396c-46.1-82.87-100.2,0-100.2,0h28.38a23.18,23.18,0,0,0-.21,3.13,23.51,23.51,0,0,0,.79,6h-46.1s72.61-124.06,134.49,0Z" transform="translate(-97.98 -19.96)"/><path d="M363.64,114.63a16.4,16.4,0,0,0-32.7,0c0,.4-.05.81-.05,1.21a16.4,16.4,0,1,0,32.8,0C363.69,115.44,363.68,115,363.64,114.63Zm-16.35,9.85a8.64,8.64,0,1,1,8.63-8.64A8.63,8.63,0,0,1,347.29,124.48Z" transform="translate(-97.98 -19.96)"/><path class="cls-11" d="M98,317.17h40.69v10H107.89v18.33h30.78v9.91H107.89v25.25h30.78v9.92H98Z" transform="translate(-97.98 -19.96)"/><path class="cls-11" d="M158.76,314.23,213.06,370V317.17h10V394l-54.3-55.57v52.17h-10Z" transform="translate(-97.98 -19.96)"/><path class="cls-11" d="M291.78,325.36l-8.13,6.51a32.6,32.6,0,0,0-5.84-5q-2.61-1.63-7.56-1.64a14.55,14.55,0,0,0-8.77,2.44,7.46,7.46,0,0,0-3.37,6.3,7.65,7.65,0,0,0,2.94,5.89q2.94,2.55,10,5.59a72.29,72.29,0,0,1,11,5.66,28.26,28.26,0,0,1,6.48,5.79,23.13,23.13,0,0,1,3.77,6.68,22.36,22.36,0,0,1,1.23,7.43,21,21,0,0,1-6.65,15.61,22.32,22.32,0,0,1-16.12,6.45,27.33,27.33,0,0,1-16.28-5q-7.06-5-10.86-15.13l10-2.83q5.47,12.41,16.77,12.4a13.07,13.07,0,0,0,9.11-3.28,10.65,10.65,0,0,0,3.63-8.27,11.18,11.18,0,0,0-1.91-6,16.89,16.89,0,0,0-4.73-5,50.17,50.17,0,0,0-9-4.48,64.63,64.63,0,0,1-9.5-4.63,24.81,24.81,0,0,1-5.75-5,21,21,0,0,1-3.56-5.78,16.82,16.82,0,0,1-1.13-6.17A17.29,17.29,0,0,1,254,320.42a22.57,22.57,0,0,1,15.39-5.56,31.26,31.26,0,0,1,12.17,2.6A25,25,0,0,1,291.78,325.36Z" transform="translate(-97.98 -19.96)"/><path class="cls-11" d="M464.39,328.84,457,336.16q-11.25-11-26-11-12.91,0-21.5,8.3a27.59,27.59,0,0,0-8.59,20.73q0,10.88,8.33,19.6t23,8.73q22,0,27.61-19.08H440v-10h31.3a56.63,56.63,0,0,1-1,12,35.15,35.15,0,0,1-4.18,9.9,35.84,35.84,0,0,1-8.44,9.7,33.44,33.44,0,0,1-11.3,6.13A49.76,49.76,0,0,1,431.94,393q-19,0-30.35-11.95t-11.32-27.34a37.23,37.23,0,0,1,11.58-27.56,38.61,38.61,0,0,1,28.07-11.37,51.63,51.63,0,0,1,17.9,3Q455.92,320.72,464.39,328.84Z" transform="translate(-97.98 -19.96)"/><path class="cls-11" d="M493.65,317.08h10v28.25h35.1V317.08h9.92v73.44h-9.92V355.24h-35.1v35.28h-10Z" transform="translate(-97.98 -19.96)"/><path class="cls-11" d="M569,317.08h44.9v10H596.34v63.41h-9.91V327.11H569Z" transform="translate(-97.98 -19.96)"/><path class="cls-11" d="M365.06,313.5v50.95a39.76,39.76,0,0,1-39.76,39.76V313.5a23.66,23.66,0,0,0,39.76,0Z" transform="translate(-97.98 -19.96)"/><path class="cls-11" d="M367.35,306.64a23.18,23.18,0,0,0,.59-9.15h25.92c-46.1-82.87-100.2,0-100.2,0H322a22.92,22.92,0,0,0-.21,3.12,23.45,23.45,0,0,0,.79,6h-46.1s72.61-124.06,134.49,0Z" transform="translate(-97.98 -19.96)"/><path class="cls-11" d="M361.53,299.4a16.39,16.39,0,0,0-32.7,0c0,.4-.05.8-.05,1.21a16.4,16.4,0,1,0,32.8,0C361.58,300.2,361.57,299.8,361.53,299.4Zm-16.35,9.84a8.63,8.63,0,1,1,8.63-8.63A8.63,8.63,0,0,1,345.18,309.24Z" transform="translate(-97.98 -19.96)"/><path class="cls-12" d="M107.12,509.6h40.69v10H117V538h30.78v9.91H117v25.25h30.78V583H107.12Z" transform="translate(-97.98 -19.96)"/><path class="cls-12" d="M167.91,506.66l54.29,55.81V509.6h10v76.83l-54.29-55.56V583h-10Z" transform="translate(-97.98 -19.96)"/><path class="cls-12" d="M300.92,517.78l-8.13,6.52a32.19,32.19,0,0,0-5.84-5c-1.74-1.1-4.26-1.64-7.56-1.64a14.57,14.57,0,0,0-8.77,2.44,7.47,7.47,0,0,0-3.36,6.29,7.64,7.64,0,0,0,2.93,5.89q2.94,2.57,10,5.6a71.57,71.57,0,0,1,11,5.66,28.41,28.41,0,0,1,6.47,5.79,22.9,22.9,0,0,1,3.77,6.68,22.32,22.32,0,0,1,1.24,7.43,20.93,20.93,0,0,1-6.66,15.61,22.31,22.31,0,0,1-16.11,6.45,27.33,27.33,0,0,1-16.29-5q-7-5.06-10.86-15.13l10-2.83q5.48,12.39,16.77,12.39a13.11,13.11,0,0,0,9.11-3.27,10.66,10.66,0,0,0,3.63-8.28,11.16,11.16,0,0,0-1.9-6,17,17,0,0,0-4.73-5,51.28,51.28,0,0,0-9-4.49,63.44,63.44,0,0,1-9.49-4.63,24.39,24.39,0,0,1-5.76-5,21.4,21.4,0,0,1-3.56-5.79,16.76,16.76,0,0,1-1.12-6.16,17.26,17.26,0,0,1,6.34-13.45,22.54,22.54,0,0,1,15.39-5.56,31.21,31.21,0,0,1,12.16,2.6A25,25,0,0,1,300.92,517.78Z" transform="translate(-97.98 -19.96)"/><path class="cls-12" d="M473.54,521.27l-7.44,7.32q-11.24-11-26-11-12.9,0-21.5,8.29A27.65,27.65,0,0,0,410,546.6q0,10.89,8.33,19.61t23,8.72q22,0,27.62-19.08H449.1v-10h31.3a57.24,57.24,0,0,1-1,12,35.5,35.5,0,0,1-4.18,9.9,35.9,35.9,0,0,1-8.45,9.7,33.22,33.22,0,0,1-11.29,6.13,49.49,49.49,0,0,1-14.39,1.84q-19,0-30.34-11.95t-11.33-27.33A37.17,37.17,0,0,1,411,518.58a38.59,38.59,0,0,1,28.07-11.37,51.81,51.81,0,0,1,17.89,3Q465.06,513.14,473.54,521.27Z" transform="translate(-97.98 -19.96)"/><path class="cls-12" d="M502.79,509.51h10v28.24h35.11V509.51h9.91V583h-9.91V547.67H512.82V583h-10Z" transform="translate(-97.98 -19.96)"/><path class="cls-12" d="M578.11,509.51H623v10H605.49V583h-9.92V519.54H578.11Z" transform="translate(-97.98 -19.96)"/><path class="cls-12" d="M374.21,505.93v50.94a39.76,39.76,0,0,1-39.77,39.77V505.93a23.68,23.68,0,0,0,39.77,0Z" transform="translate(-97.98 -19.96)"/><path class="cls-12" d="M376.5,499.07a23.45,23.45,0,0,0,.79-6,22.92,22.92,0,0,0-.21-3.12H403c-46.1-82.88-100.21,0-100.21,0h28.38a23.18,23.18,0,0,0,.59,9.15h-46.1s72.6-124.06,134.48,0Z" transform="translate(-97.98 -19.96)"/><path class="cls-12" d="M370.68,491.83a16.4,16.4,0,0,0-32.71,0c0,.39,0,.8,0,1.21a16.4,16.4,0,1,0,32.79,0C370.72,492.63,370.71,492.22,370.68,491.83Zm-16.36,9.84A8.63,8.63,0,1,1,363,493,8.64,8.64,0,0,1,354.32,501.67Z" transform="translate(-97.98 -19.96)"/><path class="cls-11" d="M200.56,916.73v56.38a44,44,0,0,1-44,44V916.73a26.2,26.2,0,0,0,44,0Z" transform="translate(-97.98 -19.96)"/><path class="cls-11" d="M203.09,909.14a25.82,25.82,0,0,0,.89-6.68,24.58,24.58,0,0,0-.24-3.45h28.7c-51-91.72-110.9,0-110.9,0H153a24.58,24.58,0,0,0-.24,3.45,25.81,25.81,0,0,0,.88,6.68h-51s80.36-137.3,148.84,0Z" transform="translate(-97.98 -19.96)"/><path class="cls-11" d="M196.65,901.12a18.14,18.14,0,0,0-36.19,0c0,.44-.05.89-.05,1.34a18.15,18.15,0,0,0,34.89,7,18,18,0,0,0,1.4-7C196.7,902,196.69,901.56,196.65,901.12ZM178.56,912a9.55,9.55,0,1,1,9.55-9.55A9.54,9.54,0,0,1,178.56,912Z" transform="translate(-97.98 -19.96)"/><path class="cls-12" d="M363.65,916.12V972.5a44,44,0,0,1-44,44V916.12a26.2,26.2,0,0,0,44,0Z" transform="translate(-97.98 -19.96)"/><path class="cls-12" d="M366.18,908.53a25.8,25.8,0,0,0,.88-6.67,26.23,26.23,0,0,0-.23-3.46h28.69c-51-91.72-110.9,0-110.9,0H316a26.23,26.23,0,0,0-.23,3.46,25.8,25.8,0,0,0,.88,6.67h-51s80.35-137.3,148.84,0Z" transform="translate(-97.98 -19.96)"/><path class="cls-12" d="M359.74,900.51a18.14,18.14,0,0,0-36.19,0c0,.44-.05.89-.05,1.34a18.15,18.15,0,0,0,34.89,7,18.21,18.21,0,0,0,1.4-7C359.79,901.4,359.78,901,359.74,900.51Zm-18.1,10.89a9.55,9.55,0,1,1,9.55-9.55A9.55,9.55,0,0,1,341.64,911.4Z" transform="translate(-97.98 -19.96)"/><path class="cls-13" d="M201.78,1122.91v56.39a44,44,0,0,1-44,44v-100.4a26.2,26.2,0,0,0,44,0Z" transform="translate(-97.98 -19.96)"/><path class="cls-13" d="M204.31,1115.32a25.68,25.68,0,0,0,.88-6.67,26.34,26.34,0,0,0-.23-3.46h28.69c-51-91.71-110.9,0-110.9,0h31.41a24.73,24.73,0,0,0-.23,3.46,25.68,25.68,0,0,0,.88,6.67h-51s80.36-137.29,148.84,0Z" transform="translate(-97.98 -19.96)"/><path class="cls-13" d="M197.87,1107.31a18.15,18.15,0,0,0-36.2,0c0,.44,0,.89,0,1.34a18.15,18.15,0,0,0,36.3,0C197.92,1108.2,197.9,1107.75,197.87,1107.31Zm-18.1,10.89a9.55,9.55,0,1,1,9.55-9.55A9.56,9.56,0,0,1,179.77,1118.2Z" transform="translate(-97.98 -19.96)"/><path class="cls-14" d="M364.86,1122.31v56.38a44,44,0,0,1-44,44V1122.31a26.2,26.2,0,0,0,44,0Z" transform="translate(-97.98 -19.96)"/><path class="cls-14" d="M367.39,1114.72a25.82,25.82,0,0,0,.89-6.68,24.83,24.83,0,0,0-.24-3.46h28.7c-51-91.71-110.9,0-110.9,0h31.41A24.83,24.83,0,0,0,317,1108a25.81,25.81,0,0,0,.88,6.68h-51s80.36-137.3,148.84,0Z" transform="translate(-97.98 -19.96)"/><path class="cls-14" d="M361,1106.7a18.14,18.14,0,0,0-36.19,0c0,.44-.05.89-.05,1.34a18.15,18.15,0,0,0,34.89,7,18,18,0,0,0,1.4-7C361,1107.59,361,1107.14,361,1106.7Zm-18.09,10.89a9.55,9.55,0,1,1,9.55-9.55A9.55,9.55,0,0,1,342.86,1117.59Z" transform="translate(-97.98 -19.96)"/><path d="M587.85,994.18v73.51a57.37,57.37,0,0,1-57.38,57.38V994.18a34.16,34.16,0,0,0,57.38,0Z" transform="translate(-97.98 -19.96)"/><path d="M591.15,984.28a33.67,33.67,0,0,0,.85-13.21h37.41c-66.53-119.58-144.59,0-144.59,0h40.95a31.93,31.93,0,0,0-.31,4.51,33.69,33.69,0,0,0,1.15,8.7H460.08s104.78-179,194.07,0Z" transform="translate(-97.98 -19.96)"/><path d="M582.76,973.83a23.66,23.66,0,0,0-47.2,0c0,.57-.06,1.16-.06,1.74a23.66,23.66,0,1,0,47.32,0C582.82,975,582.8,974.4,582.76,973.83ZM559.16,988a12.46,12.46,0,1,1,12.45-12.46A12.45,12.45,0,0,1,559.16,988Z" transform="translate(-97.98 -19.96)"/><path d="M812,145.15h23.51v5.79H817.75v10.59h17.78v5.73H817.75v14.59h17.78v5.72H812Z" transform="translate(-97.98 -19.96)"/><path d="M847.14,143.45l31.37,32.24V145.15h5.79v44.39l-31.37-32.1v30.13h-5.79Z" transform="translate(-97.98 -19.96)"/><path d="M924,149.88l-4.69,3.76a18.81,18.81,0,0,0-3.37-2.88,8.31,8.31,0,0,0-4.37-.95,8.43,8.43,0,0,0-5.07,1.41,4.3,4.3,0,0,0-1.94,3.64,4.4,4.4,0,0,0,1.69,3.4,23,23,0,0,0,5.79,3.23,42.79,42.79,0,0,1,6.36,3.27,16.13,16.13,0,0,1,3.74,3.35A13.21,13.21,0,0,1,924.3,172a12.71,12.71,0,0,1,.72,4.29,12.12,12.12,0,0,1-3.85,9,12.92,12.92,0,0,1-9.31,3.72,15.8,15.8,0,0,1-9.41-2.91,18.26,18.26,0,0,1-6.27-8.74l5.79-1.63q3.16,7.16,9.69,7.16a7.56,7.56,0,0,0,5.26-1.89,6.18,6.18,0,0,0,2.1-4.79,6.46,6.46,0,0,0-1.1-3.46,9.76,9.76,0,0,0-2.73-2.88,29.74,29.74,0,0,0-5.2-2.59,36.58,36.58,0,0,1-5.48-2.67,14.3,14.3,0,0,1-3.33-2.9,12.21,12.21,0,0,1-2-3.34,9.58,9.58,0,0,1-.65-3.56,10,10,0,0,1,3.66-7.77,13,13,0,0,1,8.89-3.21,18,18,0,0,1,7,1.5A14.35,14.35,0,0,1,924,149.88Z" transform="translate(-97.98 -19.96)"/><path d="M1023.7,151.89l-4.29,4.23a20.84,20.84,0,0,0-15-6.36A17.19,17.19,0,0,0,992,154.55a16.33,16.33,0,0,0-.15,23.3q4.81,5,13.27,5,12.69,0,15.95-11h-11.45v-5.79h18.08a32.86,32.86,0,0,1-.59,6.95,20.24,20.24,0,0,1-2.41,5.72,20.75,20.75,0,0,1-4.88,5.6,19.29,19.29,0,0,1-6.52,3.54A28.6,28.6,0,0,1,1005,189q-11,0-17.54-6.9a22.32,22.32,0,0,1-6.54-15.79,21.49,21.49,0,0,1,6.69-15.92,22.32,22.32,0,0,1,16.22-6.57,29.91,29.91,0,0,1,10.34,1.71A28.34,28.34,0,0,1,1023.7,151.89Z" transform="translate(-97.98 -19.96)"/><path d="M1040.61,145.1h5.79v16.32h20.28V145.1h5.73v42.42h-5.73V167.14H1046.4v20.38h-5.79Z" transform="translate(-97.98 -19.96)"/><path d="M1084.12,145.1h25.94v5.79h-10.13v36.63h-5.72V150.89h-10.09Z" transform="translate(-97.98 -19.96)"/><circle class="cls-4" cx="870.81" cy="107.08" r="2.95"/><path d="M966.32,143v29.43a23,23,0,0,1-23,23V143a13.68,13.68,0,0,0,23,0Z" transform="translate(-97.98 -19.96)"/><path d="M967.64,139.07a13.5,13.5,0,0,0,.34-5.29h15c-26.63-47.88-57.89,0-57.89,0h16.4a11.92,11.92,0,0,0-.13,1.8,13.8,13.8,0,0,0,.46,3.49H915.17s42-71.67,77.7,0Z" transform="translate(-97.98 -19.96)"/><path d="M964.28,134.88a9.47,9.47,0,0,0-18.89,0c0,.23,0,.47,0,.7a9.27,9.27,0,0,0,.74,3.66,9.47,9.47,0,0,0,18.21-3.66C964.31,135.35,964.3,135.11,964.28,134.88Zm-9.44,5.69a5,5,0,1,1,5-5A5,5,0,0,1,954.84,140.57Z" transform="translate(-97.98 -19.96)"/><path class="cls-12" d="M815.29,285.8H838.8v5.8H821v10.59H838.8v5.72H821V322.5H838.8v5.73H815.29Z" transform="translate(-97.98 -19.96)"/><path class="cls-12" d="M850.41,284.11l31.37,32.24V285.8h5.79v44.39l-31.37-32.1v30.14h-5.79Z" transform="translate(-97.98 -19.96)"/><path class="cls-12" d="M927.25,290.53l-4.69,3.77a19,19,0,0,0-3.38-2.89,8.27,8.27,0,0,0-4.37-.94,8.4,8.4,0,0,0-5.06,1.41,4.3,4.3,0,0,0-2,3.63,4.43,4.43,0,0,0,1.7,3.41,23.32,23.32,0,0,0,5.79,3.23,41.43,41.43,0,0,1,6.36,3.27,16.1,16.1,0,0,1,3.74,3.34,13.21,13.21,0,0,1,2.18,3.86,13.06,13.06,0,0,1,.71,4.3,12.09,12.09,0,0,1-3.84,9,12.88,12.88,0,0,1-9.31,3.73,15.8,15.8,0,0,1-9.41-2.91,18.28,18.28,0,0,1-6.27-8.75l5.79-1.63q3.16,7.17,9.69,7.16a7.56,7.56,0,0,0,5.26-1.89,6.16,6.16,0,0,0,2.1-4.78,6.49,6.49,0,0,0-1.1-3.47,9.85,9.85,0,0,0-2.73-2.87,29,29,0,0,0-5.2-2.59,37,37,0,0,1-5.48-2.68,14.07,14.07,0,0,1-3.33-2.89A12,12,0,0,1,902.4,299a9.55,9.55,0,0,1-.66-3.56,10,10,0,0,1,3.67-7.77,13,13,0,0,1,8.89-3.21,18,18,0,0,1,7,1.5A14.46,14.46,0,0,1,927.25,290.53Z" transform="translate(-97.98 -19.96)"/><path class="cls-12" d="M1027,292.55l-4.29,4.23a20.84,20.84,0,0,0-15-6.36,17.15,17.15,0,0,0-12.42,4.79,16.33,16.33,0,0,0-.15,23.3q4.81,5,13.27,5,12.69,0,15.95-11h-11.46v-5.8h18.09a32.8,32.8,0,0,1-.59,6.95,21.53,21.53,0,0,1-7.29,11.32,19.1,19.1,0,0,1-6.53,3.55,28.92,28.92,0,0,1-8.3,1.06q-11,0-17.54-6.91a22.3,22.3,0,0,1-6.54-15.78A21.5,21.5,0,0,1,990.84,291a22.3,22.3,0,0,1,16.22-6.57,29.71,29.71,0,0,1,10.34,1.72A28.19,28.19,0,0,1,1027,292.55Z" transform="translate(-97.98 -19.96)"/><path class="cls-12" d="M1043.88,285.75h5.79v16.32H1070V285.75h5.73v42.43H1070V307.8h-20.28v20.38h-5.79Z" transform="translate(-97.98 -19.96)"/><path class="cls-12" d="M1087.38,285.75h25.95v5.8H1103.2v36.63h-5.73V291.55h-10.09Z" transform="translate(-97.98 -19.96)"/><circle class="cls-12" cx="874.08" cy="247.73" r="2.95"/><path class="cls-12" d="M969.59,283.68v29.44a23,23,0,0,1-23,23V283.68a13.67,13.67,0,0,0,23,0Z" transform="translate(-97.98 -19.96)"/><path class="cls-12" d="M970.91,279.72a13.5,13.5,0,0,0,.34-5.29h15c-26.64-47.87-57.89,0-57.89,0h16.39a13.5,13.5,0,0,0,.34,5.29H918.44s41.94-71.67,77.69,0Z" transform="translate(-97.98 -19.96)"/><path class="cls-12" d="M967.55,275.54a9.47,9.47,0,0,0-18.89,0c0,.23,0,.46,0,.7a9.47,9.47,0,0,0,18.21,3.66,9.35,9.35,0,0,0,.74-3.66C967.58,276,967.57,275.77,967.55,275.54Zm-9.45,5.68a5,5,0,1,1,5-5A5,5,0,0,1,958.1,281.22Z" transform="translate(-97.98 -19.96)"/><path d="M2428.61,445.52a14.6,14.6,0,0,0-29.12,0c0,.35,0,.71,0,1.07a14.6,14.6,0,0,0,28.07,5.65,14.72,14.72,0,0,0,1.13-5.65C2428.65,446.23,2428.63,445.87,2428.61,445.52Zm-14.56,8.76a7.69,7.69,0,1,1,7.68-7.69A7.68,7.68,0,0,1,2414.05,454.28Z" transform="translate(-97.98 -19.96)"/><rect class="cls-11" x="1105.08" y="50.16" width="164.01" height="164.01"/><rect class="cls-12" x="1105.08" y="251.97" width="164.01" height="164.01"/><rect class="cls-13" x="1105.08" y="453.78" width="164.01" height="164.01"/><rect class="cls-14" x="1105.08" y="654.46" width="164.01" height="164.01"/><text class="cls-15" transform="translate(1285.52 72.12)">272838</text><text class="cls-15" transform="translate(1285.52 275.28)">8D99AE</text><text class="cls-15" transform="translate(1282.33 484.63)">CCFCCB</text><text class="cls-15" transform="translate(1282.33 680.99)">96E6B3</text></svg>