<svg xmlns="http://www.w3.org/2000/svg" viewBox="0 0 2599.85 630.19"><defs><style>.cls-1{fill:#fff;}</style></defs><g id="_1500_x_1500_px_Logo_1" data-name="1500 x 1500 px Logo 1"><g id="Text-6" data-name="Text"><path d="M806.21,709V919.24A164.1,164.1,0,0,1,642.1,1083.35V709a97.69,97.69,0,0,0,164.11,0Z" transform="translate(-440.81 -453.16)"/><path d="M815.65,680.7a95.87,95.87,0,0,0,3.29-24.89,94.49,94.49,0,0,0-.87-12.89h107c-190.26-342-413.52,0-413.52,0H628.65a94.49,94.49,0,0,0-.87,12.89,95.87,95.87,0,0,0,3.29,24.89H440.81s299.63-512,555,0Z" transform="translate(-440.81 -453.16)"/><path d="M791.63,650.8a67.66,67.66,0,0,0-135,0c-.13,1.65-.19,3.33-.19,5a67.67,67.67,0,1,0,135.34,0C791.82,654.13,791.77,652.45,791.63,650.8Zm-67.48,40.62a35.62,35.62,0,1,1,35.62-35.62A35.61,35.61,0,0,1,724.15,691.42Z" transform="translate(-440.81 -453.16)"/><path d="M1768.46,682.64h100.35v24.73h-75.9v45.2h75.9V777h-75.9v62.26h75.9v24.45H1768.46Z" transform="translate(-440.81 -453.16)"/><path d="M1918.36,675.39,2052.26,813V682.64H2077V872.12l-133.9-137V863.73h-24.74Z" transform="translate(-440.81 -453.16)"/><path d="M2246.38,702.82l-20,16.07a80.24,80.24,0,0,0-14.4-12.3q-6.45-4.05-18.65-4.05-13.34,0-21.63,6t-8.29,15.52q0,8.22,7.24,14.53t24.7,13.8q17.45,7.5,27.17,14a69.25,69.25,0,0,1,16,14.28,56.19,56.19,0,0,1,9.29,16.47,54.65,54.65,0,0,1,3.05,18.32q0,22.59-16.41,38.5t-39.73,15.9q-22.76,0-40.16-12.43t-26.79-37.32l24.73-7q13.5,30.55,41.36,30.56,13.51,0,22.46-8.08a26.29,26.29,0,0,0,9-20.4,27.58,27.58,0,0,0-4.7-14.81,41.91,41.91,0,0,0-11.66-12.26q-7-4.82-22.18-11.06t-23.42-11.42a60.56,60.56,0,0,1-14.19-12.36,52.24,52.24,0,0,1-8.77-14.27,41.24,41.24,0,0,1-2.78-15.2q0-19.46,15.63-33.17T2191.08,677a77.1,77.1,0,0,1,30,6.4A61.71,61.71,0,0,1,2246.38,702.82Z" transform="translate(-440.81 -453.16)"/><path d="M2672.06,711.42l-18.34,18.06q-27.72-27.15-64.11-27.15-31.84,0-53,20.45t-21.18,51.12q0,26.83,20.54,48.35t56.65,21.51q54.15,0,68.08-47h-48.89V772H2689q0,18.6-2.49,29.66t-10.3,24.42A88.61,88.61,0,0,1,2655.36,850a82.08,82.08,0,0,1-27.87,15.12q-14.85,4.54-35.46,4.54-46.91,0-74.84-29.47t-27.93-67.4q0-39.91,28.57-68t69.22-28q24.16,0,44.14,7.32T2672.06,711.42Z" transform="translate(-440.81 -453.16)"/><path d="M2744.21,682.43h24.73v69.65h86.57V682.43H2880V863.52h-24.45v-87h-86.57v87h-24.73Z" transform="translate(-440.81 -453.16)"/><path d="M2929.94,682.43h110.73v24.73h-43.22V863.52H2973V707.16h-43.07Z" transform="translate(-440.81 -453.16)"/><circle class="cls-1" cx="2178.1" cy="84.98" r="12.59"/><path d="M2427.11,673.59V799.22A98.06,98.06,0,0,1,2329,897.29V673.59a58.38,58.38,0,0,0,98.07,0Z" transform="translate(-440.81 -453.16)"/><path d="M2432.75,656.68a57.21,57.21,0,0,0,1.45-22.58h63.93c-113.69-204.36-247.11,0-247.11,0h70a56.09,56.09,0,0,0-.52,7.71,57.42,57.42,0,0,0,2,14.87H2208.76s179-305.94,331.65,0Z" transform="translate(-440.81 -453.16)"/><path d="M2418.4,638.81a40.44,40.44,0,0,0-80.65,0c-.08,1-.11,2-.11,3a40.44,40.44,0,1,0,80.87,0C2418.51,640.8,2418.48,639.8,2418.4,638.81Zm-40.32,24.27a21.28,21.28,0,1,1,21.28-21.28A21.29,21.29,0,0,1,2378.08,663.08Z" transform="translate(-440.81 -453.16)"/></g></g></svg>